<svg width="368" height="215" viewBox="0 0 368 215" fill="none" xmlns="http://www.w3.org/2000/svg">
    <path d="M46.9433 2.44294H10.2589L0.301758 183.666V212.557H22.8364L23.6225 173.16H31.4835L32.2696 212.557H56.9005V183.666L46.9433 2.44294ZM24.1466 144.27L25.4568 81.2356H29.6493L30.9594 144.27H24.1466Z"
          fill="#68F3F6"/>
    <path d="M60.7225 212.557H86.9256V118.005H89.0219C91.1181 118.005 92.1662 119.056 92.1662 120.632V186.292C92.1662 202.839 97.9309 212.557 107.888 212.557H120.99V186.292H120.466C118.893 186.292 118.369 185.504 118.369 183.141V149.522C118.369 127.986 113.391 112.227 105.268 107.5V104.873C112.867 99.6205 117.321 84.1246 117.321 62.8506V52.3449C117.321 23.1917 106.054 2.44294 89.808 2.44294H60.7225V212.557ZM89.0219 94.3677H86.9256V31.3336H89.0219C91.1181 31.3336 92.1662 32.3841 92.1662 33.96V91.7412C92.1662 93.3171 91.1181 94.3677 89.0219 94.3677Z"
          fill="#68F3F6"/>
    <path d="M132.904 212.557H159.107V31.3336H172.209V2.44294H119.802V31.3336H132.904V212.557Z" fill="#68F3F6"/>
    <path d="M176.129 212.557H202.332V2.44294H176.129V212.557Z" fill="#68F3F6"/>
    <path d="M236.165 214.658H236.689C254.769 214.658 265.25 185.504 265.25 135.865V134.289L239.047 129.036V183.666C239.047 184.979 238.261 185.767 236.689 185.767H236.165C234.593 185.767 233.806 184.979 233.806 183.666V31.3336C233.806 30.0203 234.593 29.2324 236.165 29.2324H236.689C238.261 29.2324 239.047 30.0203 239.047 31.3336V85.9631L265.25 80.7103V79.1344C265.25 29.4951 254.769 0.341797 236.689 0.341797H236.165C218.085 0.341797 207.603 29.4951 207.603 79.1344V135.865C207.603 185.504 218.085 214.658 236.165 214.658Z"
          fill="#68F3F6"/>
    <path d="M270.552 212.557H317.718V183.666H296.755V2.44294H270.552V212.557Z" fill="#68F3F6"/>
    <path d="M320.451 212.557H367.616V183.666H346.654V116.692H364.996V87.8016H346.654V31.3336H367.616V2.44294H320.451V212.557Z"
          fill="#68F3F6"/>
</svg>
