<svg width="242" height="74" viewBox="0 0 242 74" fill="none" xmlns="http://www.w3.org/2000/svg">
<path d="M0.742676 73.0003H16.9427V63.1003H9.74268V40.1503H16.0427V30.2503H9.74268V10.9003H16.9427V1.00027H0.742676V73.0003Z" fill="#EECCFF"/>
<path d="M21.2908 73.0003H33.8908L37.3108 10.9003V1.00027H29.5708L28.6708 46.0003H27.2308L26.3308 1.00027H17.8708V10.9003L21.2908 73.0003Z" fill="#EECCFF"/>
<path d="M38.6235 73.0003H47.6235V1.00027H38.6235V73.0003Z" fill="#EECCFF"/>
<path d="M49.4341 73.0003H65.6341V63.1003H58.4341V1.00027H49.4341V73.0003Z" fill="#EECCFF"/>
<path d="M73.7798 1.00027V73.0003H81.7898V64.9003L81.2498 37.0003H82.6898L86.2898 73.0003H91.6898L95.2898 37.0003H96.7298L96.1898 64.9003V73.0003H105.19V1.00027H94.6598L91.0598 37.0003H89.6198L86.0198 1.00027H73.7798Z" fill="#EECCFF"/>
<path d="M122.572 1.00027H109.972L106.552 63.1003V73.0003H114.292L114.562 59.5003H117.262L117.532 73.0003H125.992V63.1003L122.572 1.00027ZM114.742 49.6003L115.192 28.0003H116.632L117.082 49.6003H114.742Z" fill="#EECCFF"/>
<path d="M127.305 73.0003H136.305V40.6003H137.025C137.745 40.6003 138.105 40.9603 138.105 41.5003V64.0003C138.105 69.6703 140.085 73.0003 143.505 73.0003H148.005V64.0003H147.825C147.285 64.0003 147.105 63.7303 147.105 62.9203V51.4003C147.105 44.0203 145.395 38.6203 142.605 37.0003V36.1003C145.215 34.3003 146.745 28.9903 146.745 21.7003V18.1003C146.745 8.11028 142.875 1.00027 137.295 1.00027H127.305V73.0003ZM137.025 32.5003H136.305V10.9003H137.025C137.745 10.9003 138.105 11.2603 138.105 11.8003V31.6003C138.105 32.1403 137.745 32.5003 137.025 32.5003Z" fill="#EECCFF"/>
<path d="M152.097 73.0003H161.097V10.9003H165.597V1.00027H147.597V10.9003H152.097V73.0003Z" fill="#EECCFF"/>
<path d="M166.944 73.0003H175.944V1.00027H166.944V73.0003Z" fill="#EECCFF"/>
<path d="M193.324 1.00027H180.724L177.304 63.1003V73.0003H185.044L185.314 59.5003H188.014L188.284 73.0003H196.744V63.1003L193.324 1.00027ZM185.494 49.6003L185.944 28.0003H187.384L187.834 49.6003H185.494Z" fill="#EECCFF"/>
<path d="M198.057 73.0003H207.057V65.8003L204.357 31.6003H205.797L210.657 73.0003H219.657V1.00027H210.657V8.20027L213.357 42.4003H211.917L207.057 1.00027H198.057V73.0003Z" fill="#EECCFF"/>
<path d="M231.246 73.7203H231.426C236.736 73.7203 241.236 65.5303 241.236 55.7203C241.236 47.8003 240.246 44.0203 236.556 36.8203L233.586 31.0603C231.066 26.2003 230.436 23.6803 230.436 18.2803V10.9003C230.436 10.4503 230.706 10.1803 231.246 10.1803H231.426C231.966 10.1803 232.236 10.4503 232.236 10.9003V25.3003L240.876 23.5003V21.8803C240.876 9.19027 237.006 0.280273 231.426 0.280273H231.246C226.116 0.280273 221.796 8.47028 221.796 18.2803C221.796 26.5603 222.696 30.3403 226.116 37.1803L228.996 42.9403C231.606 48.1603 232.236 50.6803 232.236 55.7203V63.1003C232.236 63.5503 231.966 63.8203 231.426 63.8203H231.246C230.706 63.8203 230.436 63.5503 230.436 63.1003V48.7003L221.436 50.5003V52.1203C221.436 64.8103 225.486 73.7203 231.246 73.7203Z" fill="#EECCFF"/>
</svg>
