<svg width="88" height="38" fill="none" xmlns="http://www.w3.org/2000/svg">
  <g clip-path="url(#a)" fill="#000">
    <path d="M60 27c1.1046 0 2-.8954 2-2s-.8954-2-2-2-2 .8954-2 2 .8954 2 2 2Zm12 0c1.1046 0 2-.8954 2-2s-.8954-2-2-2-2 .8954-2 2 .8954 2 2 2Z"/>
    <path d="M60 20c-2.755 0-5 2.245-5 5s2.245 5 5 5 5-2.245 5-5-2.245-5-5-5Zm0 8c-1.655 0-3-1.345-3-3s1.345-3 3-3 3 1.345 3 3-1.345 3-3 3Zm12-8c-2.755 0-5 2.245-5 5s2.245 5 5 5 5-2.245 5-5-2.245-5-5-5Zm0 8c-1.655 0-3-1.345-3-3s1.345-3 3-3 3 1.345 3 3-1.345 3-3 3Z"/>
    <path d="M84 22.1V16c0-7.625-4.375-12-12-12H60c-7.625 0-12 4.375-12 12v6.1c-2.5.465-4 2.485-4 4.9 0 2.415 1.5 4.435 4 4.9V38h2V16.165l.87-.82 3.065 3.005 3.03-3 3.015 3 3.01-3 3.005 3 3-3 3 3 3-3L78 18.355l2.87-2.995 1.125 1.2v21.435h2v-6.1c2.5-.465 4-2.485 4-4.9 0-2.415-1.5-4.435-4-4.9L84 22.1Zm-36 7.73c-1-.415-2-1.525-2-2.83 0-1.305 1-2.415 2-2.83v5.66Zm29.995-12.185L75 14.65l-3 3-3-3-3 3-3.005-3-3.01 3-3.015-3-3.035 3-3.06-2.995-.86.81c.195-6.105 3.715-9.46 9.98-9.46h12c6.39 0 9.93 3.49 9.995 9.83l-1.115-1.19-2.88 3.005v-.005ZM84 29.83v-5.655c1 .415 2 1.525 2 2.83 0 1.305-1 2.415-2 2.83v-.005ZM16 27c1.1046 0 2-.8954 2-2s-.8954-2-2-2-2 .8954-2 2 .8954 2 2 2Zm12 0c1.1046 0 2-.8954 2-2s-.8954-2-2-2-2 .8954-2 2 .8954 2 2 2Z"/>
    <path d="M16 20c-2.755 0-5 2.245-5 5s2.245 5 5 5 5-2.245 5-5-2.245-5-5-5Zm0 8c-1.655 0-3-1.345-3-3s1.345-3 3-3 3 1.345 3 3-1.345 3-3 3Zm12-8c-2.755 0-5 2.245-5 5s2.245 5 5 5 5-2.245 5-5-2.245-5-5-5Zm0 8c-1.655 0-3-1.345-3-3s1.345-3 3-3 3 1.345 3 3-1.345 3-3 3Z"/>
    <path d="M43 4c-1.905 0-3-1.095-3-3 0-.55-.45-1-1-1s-1 .45-1 1c0 1.09.27 2.05.755 2.83L36.11 6.475C34.105 4.86 31.37 4 28 4H16c-3.375 0-6.11.86-8.11 2.475L5.245 3.83C5.73 3.05 6 2.09 6 1c0-.55-.45-1-1-1S4 .45 4 1c0 1.905-1.095 3-3 3-.55 0-1 .45-1 1s.45 1 1 1c1.09 0 2.05-.27 2.83-.755L6.475 7.89C4.86 9.895 4 12.63 4 16v22h2V16C6 9.55 9.55 6 16 6h12c6.45 0 10 3.55 10 10v22h2V16c0-3.375-.86-6.11-2.475-8.11l2.645-2.645C40.95 5.73 41.91 6 43 6c.55 0 1-.45 1-1s-.45-1-1-1Z"/>
  </g>
  <defs>
    <clipPath id="a">
      <path fill="#fff" d="M0 0h88v38H0z"/>
    </clipPath>
  </defs>
</svg>
