<svg width="366" height="234" viewBox="0 0 366 234" fill="none" xmlns="http://www.w3.org/2000/svg">
    <path d="M0.126465 2.43765V231.563H25.6166V205.786L23.8982 117H28.4807L39.9369 231.563H57.1213L68.5776 117H73.1601L71.4416 205.786V231.563H100.082V2.43765H66.5727L55.1165 117H50.534L39.0777 2.43765H0.126465Z"
          fill="#FFD47E"/>
    <path d="M137.069 233.854H137.642C157.404 233.854 168.86 202.063 168.86 147.932V86.0683C168.86 31.9375 157.404 0.146393 137.642 0.146393H137.069C117.307 0.146393 105.851 31.9375 105.851 86.0683V147.932C105.851 202.063 117.307 233.854 137.069 233.854ZM137.642 202.349H137.069C135.35 202.349 134.491 201.49 134.491 200.058V33.9423C134.491 32.5103 135.35 31.6511 137.069 31.6511H137.642C139.36 31.6511 140.219 32.5103 140.219 33.9423V200.058C140.219 201.49 139.36 202.349 137.642 202.349Z"
          fill="#FFD47E"/>
    <path d="M174.655 231.563H203.296V208.65L194.704 99.8158H199.286L214.752 231.563H243.393V2.43765H214.752V25.3501L223.344 134.185H218.762L203.296 2.43765H174.655V231.563Z"
          fill="#FFD47E"/>
    <path d="M249.054 231.563H300.607V200.058H277.694V127.024H297.743V95.5197H277.694V33.9423H300.607V2.43765H249.054V231.563Z"
          fill="#FFD47E"/>
    <path d="M320.172 231.563H348.813V162.825L365.424 33.9423V2.43765H340.793L337.929 94.0876H333.347L330.483 2.43765H303.56V33.9423L320.172 162.825V231.563Z"
          fill="#FFD47E"/>
</svg>
