<svg width="367" height="234" viewBox="0 0 367 234" fill="none" xmlns="http://www.w3.org/2000/svg">
<path d="M0.84668 231.563H29.4873V145.068H32.6378C50.9678 145.068 63.8561 116.714 63.8561 76.3305V71.1751C63.8561 30.7919 50.9678 2.43765 32.6378 2.43765H0.84668V231.563ZM31.7786 113.563H29.4873V33.9423H31.7786C34.0698 33.9423 35.2154 35.0879 35.2154 36.8064V110.699C35.2154 112.418 34.0698 113.563 31.7786 113.563Z" fill="#C9EA7E"/>
<path d="M68.2528 231.563H119.806V200.058H96.8935V127.024H116.942V95.5197H96.8935V33.9423H119.806V2.43765H68.2528V231.563Z" fill="#C9EA7E"/>
<path d="M155.41 233.854H155.983C175.745 233.854 187.201 202.063 187.201 147.932V86.0683C187.201 31.9375 175.745 0.146393 155.983 0.146393H155.41C135.648 0.146393 124.192 31.9375 124.192 86.0683V147.932C124.192 202.063 135.648 233.854 155.41 233.854ZM155.983 202.349H155.41C153.691 202.349 152.832 201.49 152.832 200.058V33.9423C152.832 32.5103 153.691 31.6511 155.41 31.6511H155.983C157.701 31.6511 158.56 32.5103 158.56 33.9423V200.058C158.56 201.49 157.701 202.349 155.983 202.349Z" fill="#C9EA7E"/>
<path d="M192.996 231.563H221.637V145.068H224.787C243.117 145.068 256.006 116.714 256.006 76.3305V71.1751C256.006 30.7919 243.117 2.43765 224.787 2.43765H192.996V231.563ZM223.928 113.563H221.637V33.9423H223.928C226.219 33.9423 227.365 35.0879 227.365 36.8064V110.699C227.365 112.418 226.219 113.563 223.928 113.563Z" fill="#C9EA7E"/>
<path d="M260.402 231.563H311.955V200.058H289.043V2.43765H260.402V231.563Z" fill="#C9EA7E"/>
<path d="M314.943 231.563H366.496V200.058H343.583V127.024H363.632V95.5197H343.583V33.9423H366.496V2.43765H314.943V231.563Z" fill="#C9EA7E"/>
</svg>
