<svg width="373" height="180" viewBox="0 0 373 180" fill="none" xmlns="http://www.w3.org/2000/svg">
    <path d="M24.9016 179.319H25.3404C38.2835 179.319 49.2523 159.397 49.2523 135.535C49.2523 116.27 46.8391 107.076 37.8447 89.5622L30.6054 75.5514C24.4629 63.7298 22.9272 57.6001 22.9272 44.4649V26.5136C22.9272 25.419 23.5854 24.7622 24.9016 24.7622H25.3404C26.6566 24.7622 27.3147 25.419 27.3147 26.5136V61.5406L48.3747 57.1622V53.2217C48.3747 22.3541 38.9416 0.681152 25.3404 0.681152H24.9016C12.3972 0.681152 1.86725 20.6028 1.86725 44.4649C1.86725 64.6055 4.06099 73.8001 12.3972 90.4379L19.4172 104.449C25.7791 117.146 27.3147 123.276 27.3147 135.535V153.487C27.3147 154.581 26.6566 155.238 25.3404 155.238H24.9016C23.5854 155.238 22.9272 154.581 22.9272 153.487V118.46L0.989746 122.838V126.778C0.989746 157.646 10.8616 179.319 24.9016 179.319Z"
          fill="#83F6C0"/>
    <path d="M53.6912 177.568H93.1787V153.487H75.6287V97.6622H90.9849V73.5812H75.6287V26.5136H93.1787V2.43251H53.6912V177.568Z"
          fill="#83F6C0"/>
    <path d="M106.41 177.568H128.347V26.5136H139.316V2.43251H95.441V26.5136H106.41V177.568Z" fill="#83F6C0"/>
    <path d="M152.47 177.568H174.407V26.5136H185.376V2.43251H141.501V26.5136H152.47V177.568Z" fill="#83F6C0"/>
    <path d="M188.658 177.568H210.596V2.43251H188.658V177.568Z" fill="#83F6C0"/>
    <path d="M215.009 177.568H236.946V160.054L230.365 76.8649H233.875L245.721 177.568H267.659V2.43251H245.721V19.946L252.303 103.135H248.793L236.946 2.43251H215.009V177.568Z"
          fill="#83F6C0"/>
    <path d="M295.907 179.319H296.346C311.482 179.319 320.258 155.019 320.258 113.643V88.2487H297.004V112.33H300.514V152.611C300.514 154.362 299.636 155.238 298.101 155.238H296.346C294.81 155.238 293.932 154.362 293.932 152.611V26.5136C293.932 25.419 294.591 24.7622 295.907 24.7622H296.346C297.662 24.7622 298.32 25.419 298.32 26.5136V72.0487L320.258 67.6703V66.3568C320.258 24.9812 311.482 0.681152 296.346 0.681152H295.907C280.77 0.681152 271.995 24.9812 271.995 66.3568V113.643C271.995 155.019 280.77 179.319 295.907 179.319Z"
          fill="#83F6C0"/>
    <path d="M348.608 179.319H349.047C361.99 179.319 372.959 159.397 372.959 135.535C372.959 116.27 370.546 107.076 361.551 89.5622L354.312 75.5514C348.17 63.7298 346.634 57.6001 346.634 44.4649V26.5136C346.634 25.419 347.292 24.7622 348.608 24.7622H349.047C350.363 24.7622 351.021 25.419 351.021 26.5136V61.5406L372.081 57.1622V53.2217C372.081 22.3541 362.648 0.681152 349.047 0.681152H348.608C336.104 0.681152 325.574 20.6028 325.574 44.4649C325.574 64.6055 327.768 73.8001 336.104 90.4379L343.124 104.449C349.486 117.146 351.021 123.276 351.021 135.535V153.487C351.021 154.581 350.363 155.238 349.047 155.238H348.608C347.292 155.238 346.634 154.581 346.634 153.487V118.46L324.696 122.838V126.778C324.696 157.646 334.568 179.319 348.608 179.319Z"
          fill="#83F6C0"/>
</svg>
