<svg width="369" height="259" viewBox="0 0 369 259" fill="none" xmlns="http://www.w3.org/2000/svg">
    <path d="M35.2656 258.878H35.8993C54.5949 258.878 70.4387 230.021 70.4387 195.457C70.4387 167.552 66.9531 154.234 53.9612 128.866L43.5043 108.571C34.6318 91.4476 32.4137 82.5687 32.4137 63.5425V37.5401C32.4137 35.9546 33.3643 35.0033 35.2656 35.0033H35.8993C37.8006 35.0033 38.7512 35.9546 38.7512 37.5401V88.2765L69.1712 81.9345V76.2266C69.1712 31.5151 55.5456 0.121964 35.8993 0.121964H35.2656C17.2037 0.121964 1.9937 28.9783 1.9937 63.5425C1.9937 92.716 5.16245 106.034 17.2037 130.134L27.3437 150.429C36.5331 168.821 38.7512 177.7 38.7512 195.457V221.46C38.7512 223.045 37.8006 223.997 35.8993 223.997H35.2656C33.3643 223.997 32.4137 223.045 32.4137 221.46V170.723L0.726196 177.065V182.773C0.726196 227.485 14.9856 258.878 35.2656 258.878Z"
          fill="#FFCAD9"/>
    <path d="M111.39 258.878H112.024C133.888 258.878 146.563 223.679 146.563 163.747V95.2528C146.563 35.3204 133.888 0.121964 112.024 0.121964H111.39C89.5255 0.121964 76.8505 35.3204 76.8505 95.2528V163.747C76.8505 223.679 89.5255 258.878 111.39 258.878ZM112.024 223.997H111.39C109.489 223.997 108.538 223.045 108.538 221.46V37.5401C108.538 35.9546 109.489 35.0033 111.39 35.0033H112.024C113.925 35.0033 114.875 35.9546 114.875 37.5401V221.46C114.875 223.045 113.925 223.997 112.024 223.997Z"
          fill="#FFCAD9"/>
    <path d="M152.975 256.341H184.662V142.184H187.197C189.732 142.184 191 143.452 191 145.355V224.631C191 244.608 197.971 256.341 210.012 256.341H225.856V224.631H225.222C223.321 224.631 222.687 223.679 222.687 220.826V180.236C222.687 154.234 216.667 135.208 206.843 129.5V126.329C216.033 119.987 221.42 101.278 221.42 75.5924V62.9083C221.42 27.7099 207.794 2.65879 188.148 2.65879H152.975V256.341ZM187.197 113.645H184.662V37.5401H187.197C189.732 37.5401 191 38.8085 191 40.7111V110.474C191 112.376 189.732 113.645 187.197 113.645Z"
          fill="#FFCAD9"/>
    <path d="M229.099 256.341H260.786V142.184H263.322C265.857 142.184 267.124 143.452 267.124 145.355V224.631C267.124 244.608 274.095 256.341 286.137 256.341H301.98V224.631H301.346C299.445 224.631 298.811 223.679 298.811 220.826V180.236C298.811 154.234 292.791 135.208 282.968 129.5V126.329C292.157 119.987 297.544 101.278 297.544 75.5924V62.9083C297.544 27.7099 283.918 2.65879 264.272 2.65879H229.099V256.341ZM263.322 113.645H260.786V37.5401H263.322C265.857 37.5401 267.124 38.8085 267.124 40.7111V110.474C267.124 112.376 265.857 113.645 263.322 113.645Z"
          fill="#FFCAD9"/>
    <path d="M318.923 256.341H350.611V180.236L368.989 37.5401V2.65879H341.738L338.569 104.132H333.499L330.331 2.65879H300.544V37.5401L318.923 180.236V256.341Z"
          fill="#FFCAD9"/>
</svg>
