<svg xmlns="http://www.w3.org/2000/svg" width="64" height="64" fill="none">
    <circle cx="23" cy="35" r="8" fill="#fff"/>
    <circle cx="41" cy="35" r="8" fill="#fff"/>
    <path fill="#9FA628"
          d="M62.6 5.8c-2.8 0-4.4-1.6-4.4-4.4 0-.8-.6-1.4-1.4-1.4-.8 0-1.4.6-1.4 1.4 0 1.6.4 3 1 4.2l-3.8 4C49.6 7.2 45.8 6 40.8 6H23.4c-5 0-8.8 1.2-11.8 3.6L7.8 5.8c.8-1.2 1-2.6 1-4.2C8.8.6 8 0 7.2 0S5.8.6 5.8 1.4c0 2.8-1.6 4.4-4.4 4.4-.8 0-1.4.6-1.4 1.4 0 .8.6 1.4 1.4 1.4 1.6 0 3-.4 4.2-1l4 3.8C7.2 14.4 6 18.2 6 23.2V48c0 5.6 4.4 10 10 10h32c5.6 0 10-4.4 10-10V23.2c0-5-1.2-8.8-3.6-11.8l3.8-3.8c1.2.8 2.6 1 4.2 1 .8 0 1.4-.6 1.4-1.4 0-.8-.4-1.4-1.2-1.4zM23 42c-3.8 0-7-3.2-7-7s3.2-7 7-7 7 3.2 7 7-3.2 7-7 7zm18 0c-3.8 0-7-3.2-7-7s3.2-7 7-7 7 3.2 7 7-3.2 7-7 7z"/>
    <circle cx="23" cy="35" r="4" fill="#BF6C35"/>
    <circle cx="41" cy="35" r="4" fill="#BF6C35"/>
</svg>
